# xmcd CD database file
#
# Track frame offsets:
#	150
#	21942
#	48197
#	63458
#	84699
#	100596
#	122192
#	139374
#	161336
#	175746
#	190454
#	207766
#	242658
#
# Disc length: 3535 seconds
#
# Revision: 0
# Processed by: cddbd v1.5.2PL0 Copyright (c) Steve Scherf et al.
# Submitted via: CDex 1.51
#
DISCID=b00dcd0d
DTITLE=Jowee Omicil - Love Matters!
DYEAR=2018
DGENRE=Jazz
TTITLE0=Mende Lolo
TTITLE1=Waves Of Monk
TTITLE2=Rara Demare
TTITLE3=Obas Konsa
TTITLE4=Clark
TTITLE5=Mozart BasH!
TTITLE6=De L'Orient
TTITLE7=Marie-Clémence
TTITLE8=Be Kuti
TTITLE9=Putain De BasH!
TTITLE10=Duermete Mi Nino-Venezuelian Anthem
TTITLE11=Calm Before The Storm
TTITLE12=Wé Wé Wé Wé
EXTD=YEAR: 2018
EXTT0=
EXTT1=
EXTT2=
EXTT3=
EXTT4=
EXTT5=
EXTT6=
EXTT7=
EXTT8=
EXTT9=
EXTT10=
EXTT11=
EXTT12=
PLAYORDER=
